<svg width="553" height="482" viewBox="0 0 553 482" fill="none" xmlns="http://www.w3.org/2000/svg">
<path d="M10.8781 226.135L10.9601 185.789L88.1632 64.9057L124.774 64.98L124.665 118.775L103.744 118.733L62.1434 184.398L62.1404 185.893L175.708 186.124L175.626 226.47L10.8781 226.135ZM103.838 256.211L103.924 213.996L105.081 196.44L105.348 64.9406L153.913 65.0392L153.524 256.312L103.838 256.211ZM275.387 261.789C258.016 261.692 243.019 257.645 230.396 249.65C217.772 241.655 208.052 230.147 201.233 215.128C194.415 200.109 191.058 182.108 191.163 161.125C191.268 140.08 194.729 122.218 201.545 107.537C208.424 92.8572 218.16 81.7007 230.752 74.0679C243.407 66.4352 258.421 62.6365 275.792 62.6718C293.163 62.7071 308.161 66.5979 320.785 74.3442C333.409 82.0283 343.13 93.2243 349.949 107.932C356.768 122.64 360.125 140.486 360.02 161.468C359.977 182.575 356.516 200.625 349.637 215.616C342.757 230.608 332.99 242.075 320.334 250.019C307.741 257.901 292.759 261.825 275.387 261.789ZM275.473 219.575C284.439 219.593 291.796 214.938 297.543 205.61C303.352 196.221 306.246 181.47 306.225 161.359C306.252 148.221 304.966 137.478 302.368 129.13C299.77 120.781 296.171 114.61 291.572 110.616C286.972 106.559 281.684 104.525 275.707 104.513C266.741 104.494 259.416 109.025 253.731 118.104C248.047 127.183 245.123 141.559 244.958 161.234C244.869 174.621 246.123 185.644 248.72 194.304C251.318 202.901 254.916 209.26 259.515 213.378C264.177 217.497 269.496 219.563 275.473 219.575ZM377.136 226.879L377.218 186.533L454.421 65.6498L491.032 65.7242L490.922 119.52L470.002 119.477L428.401 185.143L428.398 186.637L541.966 186.868L541.884 227.214L377.136 226.879ZM470.096 256.955L470.182 214.74L471.338 197.184L471.605 65.6847L520.171 65.7834L519.782 257.056L470.096 256.955Z" fill="#A2A2A2" fill-opacity="0.2"/>
<path d="M459.219 461.665C459.219 464.609 453.924 467.411 444.408 469.935C430.077 473.731 406.212 476.896 376.453 479.05C369.936 479.519 363.129 479.939 356.087 480.285C351.627 480.515 347.069 480.721 342.411 480.902C325.082 481.599 306.505 481.976 287.189 481.976H287.102C275 481.976 263.188 481.828 251.789 481.55C237.773 481.204 224.381 480.655 211.847 479.933C206.65 479.637 201.606 479.308 196.714 478.945C193.978 478.748 191.304 478.542 188.691 478.328C173.398 477.094 159.92 475.52 148.817 473.755C145.978 473.298 143.304 472.832 140.794 472.354C136.703 471.577 133.043 470.762 129.858 469.917C120.324 467.392 115.047 464.591 115.047 461.647C115.047 452.945 161.333 445.521 226.375 442.614L233.614 442.311C250.468 441.694 268.464 441.312 287.158 441.312C290.108 441.312 293.037 441.312 295.946 441.312C302.253 441.349 308.464 441.425 314.578 441.54C334.203 441.916 352.718 442.676 369.535 443.768C371.892 443.916 374.215 444.072 376.503 444.237C426.078 447.847 459.219 454.296 459.219 461.665Z" fill="#CEEAE9"/>
<path d="M444.392 469.935C430.08 473.731 406.215 476.897 376.456 479.051C369.939 479.52 363.132 479.939 356.09 480.285C351.63 480.515 347.071 480.721 342.414 480.902C325.084 481.599 306.508 481.976 287.191 481.976H287.105C275.003 481.976 263.19 481.828 251.792 481.55C237.776 481.204 224.384 480.655 211.85 479.933C206.653 479.637 201.609 479.308 196.717 478.946C193.981 478.748 191.307 478.543 188.694 478.329C173.401 477.094 159.923 475.521 148.82 473.755C145.981 473.299 143.307 472.832 140.797 472.355C136.706 471.577 133.046 470.762 129.861 469.917C148.499 464.98 183.313 461.079 226.359 459.154L233.598 458.851C250.452 458.234 268.449 457.852 287.142 457.852C290.092 457.852 293.021 457.852 295.93 457.852C302.238 457.889 308.448 457.965 314.562 458.08C334.187 458.456 352.702 459.215 369.519 460.308C371.877 460.456 374.199 460.612 376.487 460.777C406.215 462.962 430.08 466.14 444.392 469.935Z" fill="#364E4C"/>
<path d="M115 20.3042C115 17.3604 120.295 14.5586 129.812 12.0344C144.142 8.23895 167.995 5.06063 197.766 2.92529C204.283 2.45626 211.09 2.03659 218.132 1.69099C222.592 1.4647 227.151 1.25899 231.808 1.07384C249.138 0.376461 267.714 0 287.031 0H287.105C299.207 0 311.019 0.148116 322.418 0.425834C336.433 0.771438 349.826 1.3207 362.36 2.04277C367.556 2.339 372.6 2.66814 377.492 3.0302C380.224 3.22769 382.899 3.43341 385.515 3.64735C400.808 4.88165 414.287 6.45539 425.389 8.22044C428.228 8.67713 430.903 9.1441 433.412 9.62137C437.504 10.399 441.164 11.2136 444.348 12.0591C453.883 14.5833 459.16 17.3851 459.16 20.3289C459.16 29.0307 412.874 36.455 347.832 39.3618L340.593 39.6642C323.739 40.3122 305.743 40.664 287.049 40.664C284.099 40.664 281.17 40.664 278.261 40.664C271.954 40.627 265.743 40.5509 259.629 40.4357C240.004 40.0592 221.489 39.3001 204.703 38.2078C202.345 38.0596 200.023 37.9033 197.735 37.7387C148.141 34.1222 115 27.673 115 20.3042Z" fill="#CEEAE9"/>
<path d="M129.833 12.0349C144.144 8.23944 167.997 5.06112 197.768 2.92578C204.285 2.45675 211.093 2.03708 218.134 1.69148C222.594 1.46519 227.153 1.25947 231.81 1.07433C249.14 0.37695 267.716 0.000488281 287.033 0.000488281H287.107C299.209 0.000488281 311.022 0.148605 322.42 0.426322C336.436 0.771926 349.828 1.32119 362.362 2.04325C367.559 2.33949 372.603 2.66863 377.495 3.03069C380.227 3.22818 382.901 3.4339 385.518 3.64784C400.811 4.88214 414.289 6.45588 425.392 8.22093C428.231 8.67762 430.905 9.14459 433.415 9.62186C437.506 10.3995 441.166 11.2141 444.351 12.0596C425.713 16.9968 390.899 20.8972 347.853 22.8227L340.614 23.1251C323.76 23.7423 305.763 24.1249 287.07 24.1249C284.12 24.1249 281.191 24.1249 278.282 24.1249C271.975 24.0879 265.764 24.0117 259.65 23.8965C240.025 23.5201 221.51 22.761 204.724 21.6686C202.366 21.5205 200.044 21.3642 197.756 21.1996C167.997 19.0087 144.144 15.8304 129.833 12.0349Z" fill="#364E4C"/>
<path d="M167.883 71.7372H159.842V90.5047H167.883V71.7372Z" fill="url(#paint0_linear_629_112)"/>
<path d="M362.244 130.471H354.202V149.239H362.244V130.471Z" fill="url(#paint1_linear_629_112)"/>
<path d="M124.091 86.1298H119.457V96.9422H124.091V86.1298Z" fill="url(#paint2_linear_629_112)"/>
<path d="M170.202 194.939H165.567V205.752H170.202V194.939Z" fill="url(#paint3_linear_629_112)"/>
<path d="M368.587 66.3318H363.952V77.1442H368.587V66.3318Z" fill="url(#paint4_linear_629_112)"/>
<path d="M415.424 132.447H410.79V143.26H415.424V132.447Z" fill="url(#paint5_linear_629_112)"/>
<path d="M404.389 207.77H399.754V218.583H404.389V207.77Z" fill="url(#paint6_linear_629_112)"/>
<path d="M251.798 469.935V481.575C237.782 481.229 224.39 480.68 211.856 479.958V469.398H220.453V453.581H226.347V434.548H233.586V457.333H241.251V469.935H251.798Z" fill="url(#paint7_linear_629_112)"/>
<path d="M342.409 471.009V480.926C325.079 481.624 306.503 482 287.186 482V468.324H293.358V454.389H300.066V448.754H304.627V443.397H295.9V428.919H302.201V434.547H307.027V418.193H314.532V445.539H322.283V451.976H327.64V461.091H320.432V465.917H337.058V471.009H342.409Z" fill="url(#paint8_linear_629_112)"/>
<path d="M376.456 436.962V479.052C369.939 479.521 363.132 479.941 356.09 480.286V469.116H362.521V452.916H369.495V436.962H376.456Z" fill="url(#paint9_linear_629_112)"/>
<path d="M196.722 466.499V478.971C193.986 478.774 191.312 478.568 188.699 478.354V466.505L196.722 466.499Z" fill="url(#paint10_linear_629_112)"/>
<path d="M288.79 416.361H280.749V435.129H288.79V416.361Z" fill="url(#paint11_linear_629_112)"/>
<path d="M358.225 424.316H350.183V443.083H358.225V424.316Z" fill="url(#paint12_linear_629_112)"/>
<path d="M410.114 412.787H402.073V431.555H410.114V412.787Z" fill="url(#paint13_linear_629_112)"/>
<path d="M202.858 4.59802H194.816V23.3656H202.858V4.59802Z" fill="url(#paint14_linear_629_112)"/>
<path d="M256.518 34.4307H248.477V53.1982H256.518V34.4307Z" fill="url(#paint15_linear_629_112)"/>
<path d="M417.126 25.05H409.085V43.8176H417.126V25.05Z" fill="url(#paint16_linear_629_112)"/>
<path d="M148.808 459.746V473.773C145.969 473.317 143.294 472.85 140.785 472.372V459.746H148.808Z" fill="url(#paint17_linear_629_112)"/>
<path d="M198.841 441.323H192.7V455.647H198.841V441.323Z" fill="url(#paint18_linear_629_112)"/>
<path d="M320.616 3.1665H315.981V13.979H320.616V3.1665Z" fill="url(#paint19_linear_629_112)"/>
<path d="M335.17 433.697H330.536V444.509H335.17V433.697Z" fill="url(#paint20_linear_629_112)"/>
<path d="M175.924 391.119H167.883V409.886H175.924V391.119Z" fill="#6FC3A0"/>
<path d="M431.291 329.997H423.249V348.764H431.291V329.997Z" fill="#6FC3A0"/>
<path d="M137.86 150.919H129.818V169.686H137.86V150.919Z" fill="#6FC3A0"/>
<path d="M137.86 412.831H129.818V431.598H137.86V412.831Z" fill="#6FC3A0"/>
<path d="M219.557 414.935H214.922V425.748H219.557V414.935Z" fill="#6FC3A0"/>
<path d="M305.416 396.747H300.781V407.559H305.416V396.747Z" fill="#6FC3A0"/>
<path d="M417.734 357.003H413.1V367.816H417.734V357.003Z" fill="#6FC3A0"/>
<path d="M320.382 180.369C320.338 188.392 320.085 194.255 319.764 195.285C318.53 199.105 312.525 204.542 295.035 210.566C294.535 210.739 294.011 210.905 293.474 211.072C275.256 216.657 237.159 217.663 238.134 212.775C238.278 211.208 238.301 209.631 238.202 208.06C238.066 203.222 237.585 195.341 236.968 186.546C236.61 181.387 236.202 175.907 235.795 170.55C234.468 153.041 233.086 136.779 233.086 136.779C233.086 136.779 231.061 132.922 241.621 126.152C245.941 123.387 252.341 120.141 261.839 116.469C289.462 105.792 301.799 111.118 309.575 115.457C311.019 116.265 312.309 117.043 313.513 117.672C317.067 119.524 318.925 135.675 319.771 152.757C320.264 162.465 320.431 172.481 320.382 180.369Z" fill="#F7AC86"/>
<path d="M319.185 133.46L320.187 149.69V152.733L317.682 151.212L311.67 135.996L310.167 123.824L309 115L301 110.129H290.626L280.104 112.158L268.079 115.201L255.052 119.766L243.027 126.359L242.025 135.996V149.69L239.52 163.891L236.012 169.978V161.356L234 145.5L231.503 143.604L230 133.46V125.345L236.012 117.737L242.025 112.158L250 106.5L261 102.522L277.5 99H290.626L303.152 102.522L313 108L317.5 116.5L319.185 125.345V133.46Z" fill="#1B232A"/>
<path d="M233.756 144.765C233.756 144.765 225.252 142.74 220.698 150.109C216.143 157.478 219.266 172.851 236.003 173.141L233.812 145.431L233.756 144.765Z" fill="#F7AC86"/>
<path d="M234.394 152.757C233.409 152.012 232.27 151.496 231.061 151.248C229.851 150.999 228.601 151.023 227.402 151.319C223.113 152.257 223.649 157.75 223.649 157.75C223.649 157.75 226.118 152.109 234.758 157.071L234.394 152.757Z" fill="#D27358"/>
<path d="M318.302 134.107C318.302 134.107 321.388 129.935 328.177 131.546C334.965 133.157 337.391 152.331 320.018 158.83L318.302 134.107Z" fill="#F7AC86"/>
<path d="M318.85 141.901C318.85 141.901 321.158 137.476 325.385 137.877C329.613 138.278 328.699 142.506 328.699 142.506C328.699 142.506 326.669 139.79 323.818 142.506C320.966 145.221 319.349 147.128 319.349 147.128L318.85 141.901Z" fill="#D27358"/>
<path d="M249.383 139.654C249.383 139.654 251.395 132.866 257.153 131.175C262.911 129.484 264.528 133.113 262.516 134.106C260.504 135.1 255.012 138.315 252.599 140.457C250.186 142.598 248.421 141.926 249.383 139.654Z" fill="url(#paint21_linear_629_112)"/>
<path d="M306.345 130.726C306.345 130.726 302.864 126.048 297.766 126.152C292.669 126.257 293.348 130.38 295.088 130.726C296.828 131.071 299.377 130.207 302.327 131.176C305.277 132.145 306.616 132.392 306.345 130.726Z" fill="url(#paint22_linear_629_112)"/>
<path d="M261.555 160.299C262.502 160.299 263.27 158.241 263.27 155.702C263.27 153.162 262.502 151.104 261.555 151.104C260.607 151.104 259.839 153.162 259.839 155.702C259.839 158.241 260.607 160.299 261.555 160.299Z" fill="#08080E"/>
<path d="M279.699 137.853C279.699 137.853 291.628 169.278 289.086 173.968C286.543 178.659 284.148 176.381 282.784 171.426C281.421 166.47 279.699 137.853 279.699 137.853Z" fill="#D27358"/>
<path d="M259.98 167.803H250.026C248.55 167.803 247.354 168.998 247.354 170.472C247.354 171.946 248.55 173.141 250.026 173.141H259.98C261.456 173.141 262.653 171.946 262.653 170.472C262.653 168.998 261.456 167.803 259.98 167.803Z" fill="#EC7571"/>
<path d="M309.482 162.985L299.629 164.4C298.168 164.61 297.153 165.962 297.363 167.422C297.572 168.881 298.926 169.894 300.387 169.684L310.241 168.269C311.702 168.06 312.716 166.707 312.507 165.247C312.297 163.788 310.943 162.775 309.482 162.985Z" fill="#EC7571"/>
<path d="M375.357 350.639C375.357 354.669 375.246 364.093 375.104 374.4C374.863 392.161 374.536 412.564 374.536 412.564L365.976 415.514L365.711 403.171L357.398 404.51V392.458L346.672 392.729V411.244H336.489V402.11H328.2V416.588H318.283V384.688H305.415V375.066H294.152V387.101H282.895V405.615H274.052V399.444H266.276V436.436H255.549V430.264H247.36V439.114H239.467V412.836H231.407V394.605H224.988V381.201H229.814V365.383H221.236V358.403H213.731V402.097H203.542V375.838H196.84V363.075L178.609 232.721L179.591 232.245C184.485 229.913 206.418 219.563 217.15 216.533C229.277 213.114 330.089 199.222 349.702 210.54C362.526 217.946 369.568 270.984 372.894 309.821C374.653 330.311 375.357 346.844 375.357 350.639Z" fill="#6FC3A0"/>
<path d="M222.377 213.99C222.377 213.99 218.217 213.99 217.212 218.008C216.206 222.025 227.24 230.653 256.623 232.505C286.005 234.356 315.684 225.469 327.971 218.026C340.259 210.583 339.858 203.752 338.463 201.74C337.068 199.728 331.829 200.505 331.829 200.505C331.829 200.505 264.886 226.648 248.575 223.63C232.264 220.612 222.377 213.99 222.377 213.99Z" fill="white"/>
<path d="M320.38 180.368C320.337 188.391 320.084 194.254 319.763 195.285C318.528 199.105 312.523 204.542 295.033 210.565C294.534 210.738 294.009 210.905 293.472 211.071C278.722 212.361 263.374 213.447 256.239 213.114C249.932 212.749 243.779 211.025 238.2 208.06C238.064 203.221 237.583 195.34 236.966 186.546C236.966 186.546 240.724 203.758 258.22 205.758C275.717 207.757 306.358 202.524 306.358 202.524C306.358 202.524 315.936 192.952 320.38 180.368Z" fill="#EC7571"/>
<path opacity="0.4" d="M245.755 314.76C244.756 318.376 232.882 340.872 221.236 360.275V358.423H213.731V372.34C209.843 378.339 206.282 383.35 203.542 386.417V375.839H196.84V363.077L178.609 232.722L179.591 232.247C191.724 231.204 205.894 234.456 210.985 253.144C220.545 288.241 232.678 278.836 236.004 283.384C239.331 287.932 247.354 308.971 245.755 314.76Z" fill="#364E4C"/>
<path d="M230.284 197.896C230.284 197.896 244.559 206.326 281.354 200.5C318.148 194.674 317.963 186.651 324.98 186.546C331.997 186.441 335.046 197.698 333.33 204.116C331.614 210.535 324.073 218.391 297.282 224.624C270.492 230.858 245.941 228.846 236.005 224.624C226.069 220.403 222.113 221.397 222.379 213.991C222.644 206.585 225.458 194.075 230.284 197.896Z" fill="#CEEAE9"/>
<path d="M243.754 218.002C246.42 218.002 248.58 215.842 248.58 213.176C248.58 210.511 246.42 208.35 243.754 208.35C241.089 208.35 238.928 210.511 238.928 213.176C238.928 215.842 241.089 218.002 243.754 218.002Z" fill="#FABC68"/>
<path d="M236.721 324.369C229.482 334.824 201.322 373.217 168.36 371.217C135.398 369.217 144.834 297.023 153.684 275.312C156.85 267.536 160.096 259.84 163.416 253.181C169.372 241.251 175.574 232.63 182.023 232.735C182.023 232.735 196.903 227.069 201.525 252.804C206.148 278.54 201.525 293.617 201.525 293.617C201.525 293.617 224.045 286.982 228.47 286.377C232.895 285.773 237.517 292.21 239.128 296.832C240.739 301.454 243.96 313.915 236.721 324.369Z" fill="#6FC3A0"/>
<path d="M201.533 293.603C201.533 293.603 203.544 290.184 194.898 289.98C186.252 289.776 164.738 297.022 151.469 306.871C138.201 316.721 142.379 327.546 142.379 327.546C142.379 327.546 165.361 293.522 201.533 293.603Z" fill="#CEEAE9"/>
<path d="M201.533 293.604C201.533 293.604 199.724 289.179 181.827 295.412C163.93 301.645 146.841 316.926 143.224 325.171C139.608 333.416 144.786 337.421 144.786 337.421C144.786 337.421 159.122 314.704 166.145 308.267C173.168 301.83 190.473 293.604 201.533 293.604Z" fill="white"/>
<path d="M284.77 231.271C284.77 231.271 300.717 310.266 294.151 387.095" stroke="#364E4C" stroke-width="0.5" stroke-miterlimit="10"/>
<path opacity="0.4" d="M375.359 350.64C375.359 354.67 375.248 364.094 375.106 374.4C347.026 361.211 324.438 314.759 324.438 314.759C336.201 278.84 364.349 301.798 372.872 309.821C374.655 330.311 375.359 346.844 375.359 350.64Z" fill="#364E4C"/>
<path d="M201.532 293.604C201.532 293.604 156.702 302.861 147.149 346.981C147.149 346.981 139.607 340.248 151.469 321.752C163.33 303.256 189.066 291.993 201.532 293.604Z" fill="#CEEAE9"/>
<path d="M184.04 260.431C183.423 265.658 181.627 276.31 178.01 277.52C175.19 278.458 160.064 277.81 153.688 275.298C156.854 267.522 160.101 259.826 163.421 253.167C163.421 253.167 172.357 254.623 177.585 254.623C182.812 254.623 184.657 255.203 184.04 260.431Z" fill="#CEEAE9"/>
<path d="M171.741 269.59C173.36 269.59 174.672 268.277 174.672 266.658C174.672 265.039 173.36 263.727 171.741 263.727C170.122 263.727 168.81 265.039 168.81 266.658C168.81 268.277 170.122 269.59 171.741 269.59Z" fill="white"/>
<path d="M396.833 323.844C387.983 363.52 374.578 364.86 353.398 342.358C332.217 319.857 343.733 272.392 341.876 253.174C340.018 233.956 348.047 210.461 348.047 210.461C356.428 210.677 364.414 215.948 371.462 224.328C375.941 229.801 379.778 235.769 382.898 242.115C395.42 266.881 401.943 300.904 396.833 323.844Z" fill="#6FC3A0"/>
<path opacity="0.4" d="M343.734 235.511C343.734 235.511 359.835 247.934 366.803 257.87C373.771 267.806 375.357 286.296 375.357 286.296C375.357 286.296 348.819 265.387 336.754 262.437C324.689 259.487 343.734 235.511 343.734 235.511Z" fill="#364E4C"/>
<path d="M343.734 235.511V333.02C343.734 335.096 342.909 337.086 341.442 338.554C339.974 340.021 337.984 340.846 335.908 340.846H257.481C255.405 340.846 253.414 340.021 251.945 338.554C250.477 337.087 249.651 335.096 249.649 333.02V235.511C249.649 233.434 250.475 231.442 251.943 229.973C253.412 228.504 255.404 227.679 257.481 227.679H335.921C337.995 227.684 339.982 228.511 341.447 229.979C342.911 231.448 343.734 233.437 343.734 235.511V235.511Z" fill="#EC7571"/>
<path d="M375.357 286.296C375.357 286.296 372.006 282.272 378.844 283.716C385.682 285.161 393.519 291.19 399.753 306.674C405.986 322.159 397.574 326.374 397.574 326.374C397.574 326.374 393.408 294.473 375.357 286.296Z" fill="#CEEAE9"/>
<path opacity="0.4" d="M343.734 273.614V333.033C343.734 335.108 342.909 337.099 341.442 338.566C339.974 340.034 337.984 340.858 335.908 340.858H257.481C255.405 340.858 253.414 340.034 251.945 338.567C250.477 337.099 249.651 335.109 249.649 333.033V318.221C268.269 324.393 290.326 326.454 302.564 308.803C315.783 289.69 330.403 278.964 343.734 273.614Z" fill="#364E4C"/>
<path d="M296.682 269.591C299.92 269.591 302.545 266.966 302.545 263.728C302.545 260.49 299.92 257.865 296.682 257.865C293.444 257.865 290.819 260.49 290.819 263.728C290.819 266.966 293.444 269.591 296.682 269.591Z" fill="#FABC68"/>
<path d="M382.891 242.083C378.719 246.366 371.726 250.001 369.486 250.377C366.271 250.914 364.259 249.705 361.71 242.601C359.161 235.498 356.884 232.548 362.648 229.734C365.727 228.165 368.673 226.346 371.455 224.297C375.934 229.769 379.771 235.737 382.891 242.083V242.083Z" fill="#CEEAE9"/>
<path d="M368.278 240.084C369.764 240.084 370.969 238.879 370.969 237.393C370.969 235.907 369.764 234.702 368.278 234.702C366.792 234.702 365.587 235.907 365.587 237.393C365.587 238.879 366.792 240.084 368.278 240.084Z" fill="#EC7571"/>
<path d="M375.358 286.296C375.358 286.296 373.617 282.513 381.856 286.247C390.095 289.98 399.754 309.89 399.754 320.548C399.754 331.206 394.65 334.606 394.65 334.606C394.65 334.606 392.718 309.303 386.485 299.633C380.252 289.962 375.358 286.296 375.358 286.296Z" fill="white"/>
<path d="M375.357 286.297C375.357 286.297 399.112 318.42 389.78 345.617C389.78 345.617 396.538 341.254 394.927 321.351C393.317 301.448 380.541 285.223 375.357 286.297Z" fill="#CEEAE9"/>
<path d="M339.055 263.912C339.055 263.912 355.546 266.621 356.046 280.396C356.546 294.171 346.899 295.677 343.264 292.659C339.629 289.641 337.636 289.042 335.322 288.74C333.007 288.438 331.199 287.129 333.915 285.222C336.63 283.315 338.543 283.797 338.543 283.797C338.543 283.797 334.316 281.871 330.903 283.797C327.49 285.722 327.749 280.557 330.465 278.859C333.18 277.162 339.247 277.841 339.247 277.841C339.247 277.841 339.056 276.391 333.785 276.119C328.329 275.841 325.731 276.613 326.441 274.299C327.151 271.984 328.99 269.448 334.316 269.855L339.648 270.256C339.648 270.256 335.328 267.64 331.304 267.843C327.28 268.047 328.021 264.443 331.921 263.739C331.952 263.727 336.328 263.227 339.055 263.912Z" fill="#F7AC86"/>
<path d="M271.804 455.679H267.169V466.492H271.804V455.679Z" fill="#6FC3A0"/>
<path d="M155.474 365.192C155.474 365.192 191.269 370.783 241.258 308.76" stroke="#364E4C" stroke-width="0.5" stroke-miterlimit="10"/>
<path d="M349.932 293.448C349.932 293.448 359.547 362.859 387.504 349.609" stroke="#364E4C" stroke-width="0.5" stroke-miterlimit="10"/>
<path d="M261.556 153.529C261.982 153.529 262.327 153.183 262.327 152.757C262.327 152.331 261.982 151.986 261.556 151.986C261.13 151.986 260.784 152.331 260.784 152.757C260.784 153.183 261.13 153.529 261.556 153.529Z" fill="white"/>
<path d="M299.954 154.719C300.901 154.719 301.67 152.661 301.67 150.122C301.67 147.582 300.901 145.524 299.954 145.524C299.006 145.524 298.238 147.582 298.238 150.122C298.238 152.661 299.006 154.719 299.954 154.719Z" fill="#08080E"/>
<path d="M299.952 147.949C300.378 147.949 300.724 147.603 300.724 147.177C300.724 146.751 300.378 146.406 299.952 146.406C299.526 146.406 299.181 146.751 299.181 147.177C299.181 147.603 299.526 147.949 299.952 147.949Z" fill="white"/>
<path d="M248.903 280.328C248.903 280.328 232.413 283.037 231.913 296.812C231.413 310.587 241.059 312.093 244.676 309.075C248.292 306.057 250.31 305.458 252.619 305.156C254.927 304.854 256.741 303.545 254.026 301.638C251.31 299.731 249.403 300.213 249.403 300.213C249.403 300.213 253.625 298.287 257.044 300.213C260.463 302.138 260.191 296.973 257.482 295.275C254.772 293.578 248.7 294.22 248.7 294.22C248.7 294.22 248.891 292.77 254.155 292.498C259.611 292.221 262.209 292.992 261.506 290.678C260.802 288.363 258.957 285.833 253.625 286.234L248.299 286.635C248.299 286.635 252.619 284.019 256.642 284.222C260.666 284.426 259.926 280.822 256.025 280.118C256.007 280.143 251.631 279.643 248.903 280.328Z" fill="#F7AC86"/>
<path d="M280.359 189.304C280.302 189.886 280.058 190.433 279.662 190.863C279.267 191.293 278.742 191.582 278.168 191.687C276.193 192.224 273.039 191.742 269.25 191.187C263.745 190.378 258.758 189.699 258.172 187.046C258.095 186.722 258.085 186.386 258.141 186.058C258.647 182.559 264.041 180.454 270.176 181.349C276.31 182.244 280.871 185.799 280.359 189.304Z" fill="url(#paint23_linear_629_112)"/>
<path d="M278.168 191.674C276.193 192.211 273.04 191.73 269.25 191.174C263.745 190.366 258.759 189.687 258.172 187.033C260.394 185.497 264.097 184.793 268.115 185.385C273.268 186.138 277.31 188.774 278.168 191.674Z" fill="#EC7571"/>
<defs>
<linearGradient id="paint0_linear_629_112" x1="163.866" y1="92.1957" x2="163.866" y2="70.2437" gradientUnits="userSpaceOnUse">
<stop stop-color="#44685E"/>
<stop offset="0.87" stop-color="#1B232A"/>
</linearGradient>
<linearGradient id="paint1_linear_629_112" x1="4001.17" y1="5272.58" x2="4155.95" y2="4535.06" gradientUnits="userSpaceOnUse">
<stop stop-color="#44685E"/>
<stop offset="0.87" stop-color="#1B232A"/>
</linearGradient>
<linearGradient id="paint2_linear_629_112" x1="453.672" y1="2119.85" x2="453.672" y2="1798.28" gradientUnits="userSpaceOnUse">
<stop stop-color="#44685E"/>
<stop offset="0.87" stop-color="#1B232A"/>
</linearGradient>
<linearGradient id="paint3_linear_629_112" x1="846.048" y1="4129.7" x2="846.048" y2="3847.17" gradientUnits="userSpaceOnUse">
<stop stop-color="#44685E"/>
<stop offset="0.87" stop-color="#1B232A"/>
</linearGradient>
<linearGradient id="paint4_linear_629_112" x1="2534.29" y1="1823.57" x2="2534.29" y2="1513.26" gradientUnits="userSpaceOnUse">
<stop stop-color="#44685E"/>
<stop offset="0.87" stop-color="#1B232A"/>
</linearGradient>
<linearGradient id="paint5_linear_629_112" x1="2932.86" y1="3068.79" x2="2932.86" y2="2644.73" gradientUnits="userSpaceOnUse">
<stop stop-color="#44685E"/>
<stop offset="0.87" stop-color="#1B232A"/>
</linearGradient>
<linearGradient id="paint6_linear_629_112" x1="2838.98" y1="4390.79" x2="2838.98" y2="4015.7" gradientUnits="userSpaceOnUse">
<stop stop-color="#44685E"/>
<stop offset="0.87" stop-color="#1B232A"/>
</linearGradient>
<linearGradient id="paint7_linear_629_112" x1="231.827" y1="481.575" x2="231.827" y2="434.548" gradientUnits="userSpaceOnUse">
<stop stop-color="white"/>
<stop offset="0.38" stop-color="#9AD2B6"/>
<stop offset="0.99" stop-color="#5F9E85"/>
</linearGradient>
<linearGradient id="paint8_linear_629_112" x1="21540.7" y1="52055.4" x2="21540.7" y2="45458.4" gradientUnits="userSpaceOnUse">
<stop stop-color="white"/>
<stop offset="0.38" stop-color="#9AD2B6"/>
<stop offset="0.99" stop-color="#5F9E85"/>
</linearGradient>
<linearGradient id="paint9_linear_629_112" x1="9892.85" y1="35378.6" x2="9892.85" y2="32335.9" gradientUnits="userSpaceOnUse">
<stop stop-color="white"/>
<stop offset="0.38" stop-color="#9AD2B6"/>
<stop offset="0.99" stop-color="#5F9E85"/>
</linearGradient>
<linearGradient id="paint10_linear_629_112" x1="1689.23" y1="10498.9" x2="1689.23" y2="10246.9" gradientUnits="userSpaceOnUse">
<stop stop-color="white"/>
<stop offset="0.38" stop-color="#9AD2B6"/>
<stop offset="0.99" stop-color="#5F9E85"/>
</linearGradient>
<linearGradient id="paint11_linear_629_112" x1="2984.45" y1="14179" x2="2984.45" y2="13608.3" gradientUnits="userSpaceOnUse">
<stop stop-color="white"/>
<stop offset="0.38" stop-color="#9AD2B6"/>
<stop offset="0.99" stop-color="#5F9E85"/>
</linearGradient>
<linearGradient id="paint12_linear_629_112" x1="3958.55" y1="14428.9" x2="3958.55" y2="13858.1" gradientUnits="userSpaceOnUse">
<stop stop-color="white"/>
<stop offset="0.38" stop-color="#9AD2B6"/>
<stop offset="0.99" stop-color="#5F9E85"/>
</linearGradient>
<linearGradient id="paint13_linear_629_112" x1="4686.57" y1="14066.7" x2="4686.57" y2="13496" gradientUnits="userSpaceOnUse">
<stop stop-color="white"/>
<stop offset="0.38" stop-color="#9AD2B6"/>
<stop offset="0.99" stop-color="#5F9E85"/>
</linearGradient>
<linearGradient id="paint14_linear_629_112" x1="1778.74" y1="674.787" x2="1778.74" y2="1245.51" gradientUnits="userSpaceOnUse">
<stop stop-color="white"/>
<stop offset="0.38" stop-color="#9AD2B6"/>
<stop offset="0.99" stop-color="#5F9E85"/>
</linearGradient>
<linearGradient id="paint15_linear_629_112" x1="2531.69" y1="1611.84" x2="2531.69" y2="2182.56" gradientUnits="userSpaceOnUse">
<stop stop-color="white"/>
<stop offset="0.38" stop-color="#9AD2B6"/>
<stop offset="0.99" stop-color="#5F9E85"/>
</linearGradient>
<linearGradient id="paint16_linear_629_112" x1="4784.92" y1="1317.2" x2="4784.92" y2="1887.73" gradientUnits="userSpaceOnUse">
<stop stop-color="white"/>
<stop offset="0.38" stop-color="#9AD2B6"/>
<stop offset="0.99" stop-color="#5F9E85"/>
</linearGradient>
<linearGradient id="paint17_linear_629_112" x1="1018.42" y1="11625" x2="1018.42" y2="11306.2" gradientUnits="userSpaceOnUse">
<stop stop-color="white"/>
<stop offset="0.38" stop-color="#9AD2B6"/>
<stop offset="0.99" stop-color="#5F9E85"/>
</linearGradient>
<linearGradient id="paint18_linear_629_112" x1="1371.7" y1="11421.7" x2="1371.7" y2="11089.3" gradientUnits="userSpaceOnUse">
<stop stop-color="white"/>
<stop offset="0.38" stop-color="#9AD2B6"/>
<stop offset="0.99" stop-color="#5F9E85"/>
</linearGradient>
<linearGradient id="paint19_linear_629_112" x1="2126.1" y1="364.195" x2="2126.1" y2="553.629" gradientUnits="userSpaceOnUse">
<stop stop-color="white"/>
<stop offset="0.38" stop-color="#9AD2B6"/>
<stop offset="0.99" stop-color="#5F9E85"/>
</linearGradient>
<linearGradient id="paint20_linear_629_112" x1="2249.95" y1="8527.05" x2="2249.95" y2="8337.62" gradientUnits="userSpaceOnUse">
<stop stop-color="white"/>
<stop offset="0.38" stop-color="#9AD2B6"/>
<stop offset="0.99" stop-color="#5F9E85"/>
</linearGradient>
<linearGradient id="paint21_linear_629_112" x1="4210.5" y1="2875.86" x2="4538.42" y2="2875.86" gradientUnits="userSpaceOnUse">
<stop stop-color="#44685E"/>
<stop offset="0.87" stop-color="#1B232A"/>
</linearGradient>
<linearGradient id="paint22_linear_629_112" x1="4705.29" y1="1500.41" x2="4961.41" y2="1500.41" gradientUnits="userSpaceOnUse">
<stop stop-color="#44685E"/>
<stop offset="0.87" stop-color="#1B232A"/>
</linearGradient>
<linearGradient id="paint23_linear_629_112" x1="7714.45" y1="3771.31" x2="6778" y2="3509.96" gradientUnits="userSpaceOnUse">
<stop stop-color="#44685E"/>
<stop offset="0.87" stop-color="#1B232A"/>
</linearGradient>
</defs>
</svg>
